<svg xmlns="http://www.w3.org/2000/svg" xmlns:xlink="http://www.w3.org/1999/xlink" viewBox="0 0 826.4 184.54"><defs><style>.a{fill:#001464;}.b{fill:url(#a);}</style><linearGradient id="a" x1="131.95" y1="233.5" x2="131.95" y2="61.53" gradientUnits="userSpaceOnUse"><stop offset="0.03" stop-color="red"/><stop offset="0.6" stop-color="#0505a9"/><stop offset="0.69" stop-color="#0539c0"/><stop offset="0.82" stop-color="#0585e2"/><stop offset="0.92" stop-color="#05b6f7"/><stop offset="0.97" stop-color="#05c8ff"/></linearGradient></defs><title>Broadsign_Logo</title><path class="a" d="M370.8,120a2.45,2.45,0,0,1,2,2.4v21.9a1.91,1.91,0,0,1-.7,1.4,1.74,1.74,0,0,1-1.4.3c-3-.8-5.9-1.6-9.7-1.2-5,.4-8.7,2.9-12.6,5.7V205a2.41,2.41,0,0,1-.7,1.7,2.34,2.34,0,0,1-1.7.7H325a2.48,2.48,0,0,1-2.5-2.5v-83a2.48,2.48,0,0,1,2.5-2.5h16.9a3.28,3.28,0,0,1,3,2,67,67,0,0,1,2.8,9.3c.1-.1.1-.2.2-.2,4-5,8-10.2,15.3-11.2A23.17,23.17,0,0,1,370.8,120Zm529.1,29.5c0-20.8-9.1-31.4-27.1-31.4-10,0-16.9,4.7-22.3,9.3-.6-2.1-1.2-4.1-1.9-5.9a3.28,3.28,0,0,0-3-2H828.8a2.48,2.48,0,0,0-2.5,2.5v83a2.48,2.48,0,0,0,2.5,2.5h21a2.48,2.48,0,0,0,2.5-2.5V146.4c1.6-1.5,5.7-4.8,11.1-4.8,7.5,0,10.8,4.3,10.8,13.9V205a2.48,2.48,0,0,0,2.5,2.5h20.9a2.48,2.48,0,0,0,2.5-2.5c-.2-8.4-.2-39.1-.2-55.5m-174.1-30h-21a2.48,2.48,0,0,0-2.5,2.5v83a2.48,2.48,0,0,0,2.5,2.5h21a2.48,2.48,0,0,0,2.5-2.5V122a2.48,2.48,0,0,0-2.5-2.5m-3.1-38.4a14.13,14.13,0,0,0-5.8-1.7,15.42,15.42,0,0,0-7.5,1.1,14.74,14.74,0,0,0-8.5,15.3,14.52,14.52,0,0,0,6,10.3,13.82,13.82,0,0,0,8.4,2.7h.2a16.43,16.43,0,0,0,6-1.1,14.77,14.77,0,0,0,8.7-14.3,14.93,14.93,0,0,0-7.5-12.3M295.4,145.2a25.9,25.9,0,0,1,12.9,8.7c4,5.1,6,11.5,6,19.1,0,21.3-14.1,34.5-36.4,34.5H233.7a2.41,2.41,0,0,1-1.7-.7,2.34,2.34,0,0,1-.7-1.7V90.4a2.48,2.48,0,0,1,2.5-2.5h42.5c21.3,0,34.8,11.6,34.8,30.3,0,18.5-9.7,24.7-15.5,26.8h-.1c-.1,0-.2.1-.3.1h0s0,.1.2.1m-36.2,40.4h12.7c8.3,0,12.7-5.3,12.7-15.2,0-9.2-5-14.5-13.9-14.6H259.1v29.8Zm12.3-49.7c7.6,0,11.7-4.9,11.7-13.8,0-7.4-4.6-11.6-12.7-11.6H259v25.4h12.5m143-18c12.6,0,23,4.4,30.1,12.7,6.8,8,10.4,19.5,10.4,33.1,0,26.6-17,45.9-40.5,45.9-12.6,0-23-4.4-30.1-12.7-6.8-8-10.4-19.5-10.4-33.1,0-26.6,17.1-45.9,40.5-45.9m13.6,45.9c0-16.4-4.6-24-13.6-24s-13.6,7.5-13.6,24,4.6,24,13.6,24,13.6-7.6,13.6-24m388.8-44.3a2.49,2.49,0,0,1,1.7,2.4V140a2,2,0,0,1-.6,1.4,1.44,1.44,0,0,1-1.4.3,30.87,30.87,0,0,0-9.6-.5,26.1,26.1,0,0,1,1.5,8.7c0,19.6-13.7,32.2-34.9,32.2h-1.9c-3-.2-5.1.2-6.1,1.2a2.06,2.06,0,0,0-.7,1.7c0,1.8.9,3.3,7.6,3.6,0,0,1.1,0,13.1.6,20.1,1,30.3,10,30.3,26.4a26.86,26.86,0,0,1-9.7,20.7c-7.6,6.5-18.9,9.8-33.5,9.8-22.9,0-37.2-8.9-37.2-22.7,0-8.1,5.8-15.8,13.8-18.6a17.69,17.69,0,0,1-7.3-14.1c0-5.4,3.3-10.5,9.1-14.3-8.1-5.5-12.5-14.8-12.5-26.4,0-19.6,13.8-32.2,35.1-32.2a37.09,37.09,0,0,1,22.8,7.9c4.7-4.4,10-6.7,15.7-6.7a15.07,15.07,0,0,1,4.7.5M765,209.8c-4.5,2.2-6.8,5.4-6.8,9.3,0,6.2,5.1,9,15.2,9,11.2,0,17.2-3,17.3-9.3.2-5.2-3.5-7.9-11-8.3l-14.7-.7m18.6-60.5c0-7.8-3.8-12.4-10.1-12.4s-10.1,4.6-10.1,12.4,3.8,12.4,10.1,12.4,10.1-4.7,10.1-12.4m-287-31.2c22.8,0,33,10.8,33,32.9v54a2.48,2.48,0,0,1-2.5,2.5H511a3.28,3.28,0,0,1-3-2c-.5-1.4-1.1-3-1.6-4.7-4.2,4.9-12,8.2-19.5,8.2-16.1,0-27-11.4-27-28.3,0-17.3,13.5-28.5,34.5-28.5a86.93,86.93,0,0,1,9.4.4l.1-1.8c0-7-2.2-11.3-13.1-11.3-7.6,0-17.5,3.5-22.1,5.5a2,2,0,0,1-1.7-.1,1.76,1.76,0,0,1-.8-1.5V126.2a3,3,0,0,1,1.9-2.9c5.9-2.5,18.8-5.2,28.5-5.2m-11.4,60.8c0,3.9,3.2,7.8,9.4,7.8a14.11,14.11,0,0,0,9.2-3.5v-12a48,48,0,0,0-5.8-.2c-7.5-.1-12.8,3.2-12.8,7.9M614.9,84.5a2.48,2.48,0,0,1,2.5,2.5V205a2.48,2.48,0,0,1-2.5,2.5h-17a3.28,3.28,0,0,1-3-2,38.49,38.49,0,0,1-1.6-4.8,30.17,30.17,0,0,1-21.1,9c-20.4,0-33.1-17.6-33.1-45.9,0-27.8,13-45.8,33.1-45.8a34.12,34.12,0,0,1,18.5,5.8V86.9a2.48,2.48,0,0,1,2.5-2.5h21.7M578.7,186.8c5.6,0,9.9-4.2,12.1-8.1v-30c-2.2-3.9-6.5-8-12.1-8-8.4,0-12.5,7.5-12.5,22.9-.1,15.6,4,23.2,12.5,23.2M670,153.4c-9.1-4-16-6.1-16-10,0-2,2-4.3,8.3-4.3,8,0,15.8,2.3,25.1,6.7a1.73,1.73,0,0,0,2.5-1.6V125.8a3,3,0,0,0-1.7-2.7c-6.6-3.1-16.9-5.3-25.9-5.3-18.9,0-34.6,8.7-34.6,26.6,0,14.2,8.7,22.3,24.9,29,8.6,3.6,15,5.4,14.9,9.5,0,2-1.7,4.4-9.9,4.4-8.4,0-18.2-3.2-26.1-7.1a1.8,1.8,0,0,0-2.6,1.6v19a3,3,0,0,0,1.7,2.7c7.8,3.8,17.5,5.5,26.9,5.5,19.3,0,36.3-9.1,36.3-27.1C693.9,167.6,685.6,160.3,670,153.4Z" transform="translate(-73.7 -61.56)"/><path class="b" d="M151.37,103,112.53,80.54,80.76,62.2a4.71,4.71,0,0,0-7.06,4.08V229.33a4.71,4.71,0,0,0,7.06,4.08l31.77-18.34,38.83-22.42L187.1,172a6.21,6.21,0,0,0,3.1-5.38V129a6.21,6.21,0,0,0-3.1-5.38Zm-38.83,67.26V125.38l38.83,22.42Z" transform="translate(-73.7 -61.56)"/></svg>